# xmcd CD database file
#
# Track frame offsets:
#	150
#	42773
#	100914
#	137829
#	169435
#
# Disc length: 2657 seconds
#
# Revision: 0
# Processed by: cddbd v1.5.2PL0 Copyright (c) Steve Scherf et al.
# Submitted via: CDex 1.70beta2
#
DISCID=400a5f05
DTITLE=Laco Deczi - Jazzissimo
DYEAR=1981
DGENRE=Jazz
TTITLE0=Jazzova kotelna
TTITLE1=Judy
TTITLE2=Blue Bossa
TTITLE3=Stary Sam
TTITLE4=Cherokee
EXTD=YEAR: 1981
EXTT0=
EXTT1=
EXTT2=
EXTT3=
EXTT4=
PLAYORDER=
